<svg width="800" height="200" viewBox="0 0 800 200" xmlns="http://www.w3.org/2000/svg">
  <rect width="800" height="200" fill="#0a0e17"/>

  <!-- Connections -->
  <g stroke="#1d9e75" stroke-width="0.6" opacity="0.25">
    <!-- layer 0 to layer 1 -->
    <line x1="80" y1="60" x2="200" y2="40"/><line x1="80" y1="60" x2="200" y2="80"/>
    <line x1="80" y1="60" x2="200" y2="120"/><line x1="80" y1="60" x2="200" y2="160"/>
    <line x1="80" y1="100" x2="200" y2="40"/><line x1="80" y1="100" x2="200" y2="80"/>
    <line x1="80" y1="100" x2="200" y2="120"/><line x1="80" y1="100" x2="200" y2="160"/>
    <line x1="80" y1="140" x2="200" y2="40"/><line x1="80" y1="140" x2="200" y2="80"/>
    <line x1="80" y1="140" x2="200" y2="120"/><line x1="80" y1="140" x2="200" y2="160"/>
  </g>
  <g stroke="#7f77dd" stroke-width="0.6" opacity="0.2">
    <!-- layer 1 to layer 2 -->
    <line x1="200" y1="40" x2="320" y2="33"/><line x1="200" y1="40" x2="320" y2="67"/>
    <line x1="200" y1="40" x2="320" y2="100"/><line x1="200" y1="40" x2="320" y2="133"/>
    <line x1="200" y1="40" x2="320" y2="167"/>
    <line x1="200" y1="80" x2="320" y2="33"/><line x1="200" y1="80" x2="320" y2="67"/>
    <line x1="200" y1="80" x2="320" y2="100"/><line x1="200" y1="80" x2="320" y2="133"/>
    <line x1="200" y1="80" x2="320" y2="167"/>
    <line x1="200" y1="120" x2="320" y2="33"/><line x1="200" y1="120" x2="320" y2="67"/>
    <line x1="200" y1="120" x2="320" y2="100"/><line x1="200" y1="120" x2="320" y2="133"/>
    <line x1="200" y1="120" x2="320" y2="167"/>
    <line x1="200" y1="160" x2="320" y2="33"/><line x1="200" y1="160" x2="320" y2="67"/>
    <line x1="200" y1="160" x2="320" y2="100"/><line x1="200" y1="160" x2="320" y2="133"/>
    <line x1="200" y1="160" x2="320" y2="167"/>
  </g>
  <g stroke="#7f77dd" stroke-width="0.6" opacity="0.2">
    <!-- layer 2 to layer 3 -->
    <line x1="320" y1="33" x2="440" y2="40"/><line x1="320" y1="33" x2="440" y2="80"/>
    <line x1="320" y1="33" x2="440" y2="120"/><line x1="320" y1="33" x2="440" y2="160"/>
    <line x1="320" y1="67" x2="440" y2="40"/><line x1="320" y1="67" x2="440" y2="80"/>
    <line x1="320" y1="67" x2="440" y2="120"/><line x1="320" y1="67" x2="440" y2="160"/>
    <line x1="320" y1="100" x2="440" y2="40"/><line x1="320" y1="100" x2="440" y2="80"/>
    <line x1="320" y1="100" x2="440" y2="120"/><line x1="320" y1="100" x2="440" y2="160"/>
    <line x1="320" y1="133" x2="440" y2="40"/><line x1="320" y1="133" x2="440" y2="80"/>
    <line x1="320" y1="133" x2="440" y2="120"/><line x1="320" y1="133" x2="440" y2="160"/>
    <line x1="320" y1="167" x2="440" y2="40"/><line x1="320" y1="167" x2="440" y2="80"/>
    <line x1="320" y1="167" x2="440" y2="120"/><line x1="320" y1="167" x2="440" y2="160"/>
  </g>
  <g stroke="#1d9e75" stroke-width="0.6" opacity="0.25">
    <!-- layer 3 to layer 4 -->
    <line x1="440" y1="40" x2="560" y2="67"/><line x1="440" y1="40" x2="560" y2="100"/>
    <line x1="440" y1="40" x2="560" y2="133"/>
    <line x1="440" y1="80" x2="560" y2="67"/><line x1="440" y1="80" x2="560" y2="100"/>
    <line x1="440" y1="80" x2="560" y2="133"/>
    <line x1="440" y1="120" x2="560" y2="67"/><line x1="440" y1="120" x2="560" y2="100"/>
    <line x1="440" y1="120" x2="560" y2="133"/>
    <line x1="440" y1="160" x2="560" y2="67"/><line x1="440" y1="160" x2="560" y2="100"/>
    <line x1="440" y1="160" x2="560" y2="133"/>
  </g>

  <!-- Signal dots on connections (static representation) -->
  <circle cx="140" cy="50" r="3" fill="#1d9e75" opacity="0.9"/>
  <circle cx="260" cy="90" r="3" fill="#7f77dd" opacity="0.9"/>
  <circle cx="380" cy="120" r="3" fill="#7f77dd" opacity="0.9"/>
  <circle cx="500" cy="80" r="3" fill="#1d9e75" opacity="0.9"/>
  <circle cx="160" cy="130" r="2.5" fill="#d4537e" opacity="0.8"/>
  <circle cx="290" cy="55" r="2.5" fill="#7f77dd" opacity="0.8"/>
  <circle cx="410" cy="145" r="2.5" fill="#7f77dd" opacity="0.8"/>
  <circle cx="510" cy="110" r="2.5" fill="#1d9e75" opacity="0.8"/>

  <!-- Layer 0 nodes (3) -->
  <circle cx="80" cy="60" r="10" fill="#1d9e75" opacity="0.85"/>
  <circle cx="80" cy="60" r="14" fill="none" stroke="#1d9e75" stroke-width="1" opacity="0.35"/>
  <circle cx="80" cy="100" r="10" fill="#1d9e75" opacity="0.85"/>
  <circle cx="80" cy="100" r="14" fill="none" stroke="#1d9e75" stroke-width="1" opacity="0.35"/>
  <circle cx="80" cy="140" r="10" fill="#1d9e75" opacity="0.85"/>
  <circle cx="80" cy="140" r="14" fill="none" stroke="#1d9e75" stroke-width="1" opacity="0.35"/>

  <!-- Layer 1 nodes (4) -->
  <circle cx="200" cy="40" r="10" fill="#7f77dd" opacity="0.85"/>
  <circle cx="200" cy="40" r="14" fill="none" stroke="#7f77dd" stroke-width="1" opacity="0.35"/>
  <circle cx="200" cy="80" r="10" fill="#7f77dd" opacity="0.85"/>
  <circle cx="200" cy="80" r="14" fill="none" stroke="#7f77dd" stroke-width="1" opacity="0.35"/>
  <circle cx="200" cy="120" r="10" fill="#7f77dd" opacity="0.85"/>
  <circle cx="200" cy="120" r="14" fill="none" stroke="#7f77dd" stroke-width="1" opacity="0.35"/>
  <circle cx="200" cy="160" r="10" fill="#7f77dd" opacity="0.85"/>
  <circle cx="200" cy="160" r="14" fill="none" stroke="#7f77dd" stroke-width="1" opacity="0.35"/>

  <!-- Layer 2 nodes (5) -->
  <circle cx="320" cy="33" r="10" fill="#7f77dd" opacity="0.85"/>
  <circle cx="320" cy="33" r="14" fill="none" stroke="#7f77dd" stroke-width="1" opacity="0.35"/>
  <circle cx="320" cy="67" r="10" fill="#7f77dd" opacity="0.85"/>
  <circle cx="320" cy="67" r="14" fill="none" stroke="#7f77dd" stroke-width="1" opacity="0.35"/>
  <circle cx="320" cy="100" r="10" fill="#7f77dd" opacity="0.85"/>
  <circle cx="320" cy="100" r="14" fill="none" stroke="#7f77dd" stroke-width="1" opacity="0.35"/>
  <circle cx="320" cy="133" r="10" fill="#7f77dd" opacity="0.85"/>
  <circle cx="320" cy="133" r="14" fill="none" stroke="#7f77dd" stroke-width="1" opacity="0.35"/>
  <circle cx="320" cy="167" r="10" fill="#7f77dd" opacity="0.85"/>
  <circle cx="320" cy="167" r="14" fill="none" stroke="#7f77dd" stroke-width="1" opacity="0.35"/>

  <!-- Layer 3 nodes (4) -->
  <circle cx="440" cy="40" r="10" fill="#7f77dd" opacity="0.85"/>
  <circle cx="440" cy="40" r="14" fill="none" stroke="#7f77dd" stroke-width="1" opacity="0.35"/>
  <circle cx="440" cy="80" r="10" fill="#7f77dd" opacity="0.85"/>
  <circle cx="440" cy="80" r="14" fill="none" stroke="#7f77dd" stroke-width="1" opacity="0.35"/>
  <circle cx="440" cy="120" r="10" fill="#7f77dd" opacity="0.85"/>
  <circle cx="440" cy="120" r="14" fill="none" stroke="#7f77dd" stroke-width="1" opacity="0.35"/>
  <circle cx="440" cy="160" r="10" fill="#7f77dd" opacity="0.85"/>
  <circle cx="440" cy="160" r="14" fill="none" stroke="#7f77dd" stroke-width="1" opacity="0.35"/>

  <!-- Layer 4 nodes (3) -->
  <circle cx="560" cy="67" r="10" fill="#1d9e75" opacity="0.85"/>
  <circle cx="560" cy="67" r="14" fill="none" stroke="#1d9e75" stroke-width="1" opacity="0.35"/>
  <circle cx="560" cy="100" r="10" fill="#1d9e75" opacity="0.85"/>
  <circle cx="560" cy="100" r="14" fill="none" stroke="#1d9e75" stroke-width="1" opacity="0.35"/>
  <circle cx="560" cy="133" r="10" fill="#1d9e75" opacity="0.85"/>
  <circle cx="560" cy="133" r="14" fill="none" stroke="#1d9e75" stroke-width="1" opacity="0.35"/>

  <!-- Layer labels -->
  <text x="80" y="185" text-anchor="middle" font-family="monospace" font-size="9" fill="#484f58">input</text>
  <text x="200" y="185" text-anchor="middle" font-family="monospace" font-size="9" fill="#484f58">hidden_1</text>
  <text x="320" y="185" text-anchor="middle" font-family="monospace" font-size="9" fill="#484f58">hidden_2</text>
  <text x="440" y="185" text-anchor="middle" font-family="monospace" font-size="9" fill="#484f58">hidden_3</text>
  <text x="560" y="185" text-anchor="middle" font-family="monospace" font-size="9" fill="#484f58">output</text>

  <!-- Name and title on the right -->
  <text x="650" y="72" text-anchor="middle" font-family="monospace" font-size="26" font-weight="700" fill="#e6edf3">Austine</text>
  <text x="650" y="98" text-anchor="middle" font-family="monospace" font-size="26" font-weight="700" fill="#e6edf3">Alex</text>
  <text x="650" y="118" text-anchor="middle" font-family="monospace" font-size="10" fill="#7ee787" letter-spacing="2">NEURAL NETWORK ENGINEER</text>
  <text x="650" y="134" text-anchor="middle" font-family="monospace" font-size="10" fill="#7ee787" letter-spacing="2">BACKEND SYSTEMS</text>
  <line x1="600" y1="144" x2="700" y2="144" stroke="#1e2a3a" stroke-width="1"/>
  <text x="650" y="158" text-anchor="middle" font-family="monospace" font-size="9" fill="#484f58">Golang · PyTorch · Kotlin · Laravel</text>
  <text x="650" y="172" text-anchor="middle" font-family="monospace" font-size="9" fill="#484f58">epoch 2026</text>
</svg>
